<?xml version="1.0" standalone="no"?>
<!DOCTYPE svg PUBLIC "-//W3C//DTD SVG 20010904//EN"
 "http://www.w3.org/TR/2001/REC-SVG-20010904/DTD/svg10.dtd">
<svg version="1.0" xmlns="http://www.w3.org/2000/svg"
 width="472.000000pt" height="472.000000pt" viewBox="0 0 472.000000 472.000000"
 preserveAspectRatio="xMidYMid meet">
<metadata>
Created by potrace 1.16, written by Peter Selinger 2001-2019
</metadata>
<g transform="translate(0.000000,472.000000) scale(0.100000,-0.100000)"
fill="#000000" stroke="none">
<path d="M2140 4368 c-85 -50 -335 -194 -555 -321 -837 -482 -912 -525 -986
-568 l-76 -44 -7 -610 c-4 -335 -6 -803 -4 -1039 l3 -429 80 -47 c185 -110
337 -198 630 -368 171 -98 326 -188 345 -200 19 -11 187 -108 373 -216 l338
-197 37 23 c20 12 42 26 47 31 6 5 285 166 620 359 336 192 718 412 850 488
l240 138 0 398 c0 220 -4 681 -9 1026 l-8 628 -242 143 c-132 79 -320 190
-416 247 -96 56 -206 122 -245 145 -38 23 -232 138 -430 255 -198 117 -371
222 -384 232 -13 10 -29 18 -35 17 -6 0 -81 -41 -166 -91z m204 -12 c17 -12
229 -140 471 -283 242 -143 487 -289 545 -323 58 -35 119 -71 135 -80 140 -81
481 -286 486 -293 6 -8 24 -1362 24 -1777 l0 -195 -385 -223 c-212 -122 -392
-226 -400 -229 -8 -4 -78 -44 -155 -88 -77 -45 -267 -156 -423 -246 -156 -90
-300 -174 -320 -187 -20 -12 -46 -21 -57 -19 -12 2 -291 160 -620 352 -330
192 -709 412 -843 489 l-244 141 7 995 c5 723 10 998 19 1006 6 6 137 83 291
172 154 88 534 307 845 486 311 179 571 326 579 326 8 0 28 -11 45 -24z"/>
<path d="M2195 4291 c-44 -26 -188 -110 -320 -186 -132 -76 -346 -199 -475
-273 -129 -75 -359 -206 -510 -293 l-275 -158 -6 -68 c-4 -37 -9 -480 -12
-984 l-6 -916 147 -85 c421 -243 1018 -589 1260 -730 l272 -159 48 29 c26 17
256 151 512 298 256 147 528 304 605 348 77 45 231 133 343 196 l203 115 -5
175 c-3 96 -8 438 -11 760 -3 322 -8 680 -11 795 l-6 211 -62 35 c-33 20 -371
219 -751 444 -379 225 -706 417 -725 429 -19 11 -48 30 -63 43 -16 13 -38 23
-50 22 -12 -1 -58 -22 -102 -48z m173 -564 c24 -12 61 -36 83 -55 51 -44 179
-216 179 -241 0 -19 -43 -61 -63 -61 -5 0 -27 18 -48 40 -41 42 -164 110 -200
110 -17 0 -20 4 -15 23 16 55 18 77 8 77 -15 0 -24 -18 -12 -22 7 -2 7 -13 0
-34 -11 -30 -13 -31 -90 -37 -77 -6 -141 -25 -154 -45 -3 -6 18 -1 47 10 43
17 69 19 147 16 87 -4 103 -8 167 -42 94 -49 137 -96 129 -139 -3 -18 -9 -51
-12 -74 -4 -24 -10 -43 -15 -43 -5 0 -20 17 -33 38 -54 86 -137 131 -240 132
-83 0 -140 -16 -169 -47 -12 -12 -24 -23 -27 -23 -3 0 -4 19 -3 43 l2 42 -10
-48 c-6 -32 -6 -54 1 -67 15 -28 4 -43 -22 -29 -34 18 -108 91 -124 120 -35
69 -9 128 110 245 51 50 105 99 118 108 59 39 170 40 246 3z m922 -117 c0 -17
-47 -117 -74 -157 -21 -31 -36 -41 -83 -54 -32 -8 -57 -20 -56 -26 2 -11 -34
-29 -42 -21 -7 7 232 268 246 268 5 0 9 -4 9 -10z m-931 -270 c61 -31 66 -40
63 -103 -3 -46 -7 -57 -21 -57 -22 0 -41 19 -41 42 0 45 -86 43 -118 -3 -19
-27 -51 -24 -62 6 -13 33 -56 50 -89 35 -13 -6 -26 -9 -28 -6 -7 7 5 38 26 65
39 51 189 63 270 21z m-129 -169 c29 -55 95 -71 124 -29 13 19 19 20 41 10 20
-9 25 -19 25 -47 0 -46 13 -38 30 17 16 52 29 70 42 62 6 -4 4 -10 -6 -16 -9
-5 -16 -14 -16 -21 0 -7 4 -6 10 3 11 17 16 13 24 -20 8 -31 -27 -92 -47 -84
-10 3 -18 -11 -28 -48 -9 -32 -20 -53 -28 -53 -8 0 -23 -17 -34 -38 -22 -42
-68 -81 -116 -98 -52 -18 -87 3 -123 75 -41 81 -78 192 -78 233 0 38 -2 37 38
17 36 -17 63 -8 95 33 22 28 33 29 47 4z m622 -139 c34 -20 62 -75 52 -105
-22 -73 -68 -166 -87 -176 -21 -11 -21 -11 3 -5 14 4 33 13 42 21 37 33 88
-35 88 -118 0 -38 -2 -41 -22 -34 -51 15 -60 12 -72 -30 -11 -36 -14 -40 -41
-37 -45 6 -87 26 -117 57 -32 31 -35 47 -13 69 8 8 15 23 15 34 0 11 6 25 13
31 11 9 16 3 26 -29 13 -45 43 -70 83 -70 33 0 55 39 38 68 -7 14 -9 10 -10
-15 0 -29 -3 -33 -27 -33 -36 0 -47 8 -67 47 -11 23 -14 45 -10 73 6 36 4 40
-21 50 -14 6 -31 8 -35 5 -5 -3 -14 4 -20 15 -17 31 3 58 48 63 32 3 34 5 15
12 -33 11 -29 21 25 52 44 26 46 28 20 31 -27 3 -43 26 -32 44 8 13 71 1 106
-20z m-972 5 c0 -19 -20 -36 -36 -30 -25 9 -15 -12 14 -30 60 -37 59 -35 37
-51 -19 -15 -19 -15 7 -16 22 0 58 -22 58 -35 0 -15 -15 -35 -26 -35 -34 0
-64 -24 -63 -49 2 -24 2 -24 6 -3 2 12 8 22 13 22 16 0 42 -61 36 -85 -4 -14
1 -36 11 -54 18 -30 18 -30 -16 -65 -41 -42 -78 -58 -122 -54 -32 3 -34 6 -37
42 -4 41 -4 41 -69 21 -21 -7 -23 -4 -23 26 0 56 19 108 46 126 35 23 48 5 49
-65 0 -57 0 -57 32 -60 37 -4 83 33 83 65 0 13 -6 8 -20 -14 -22 -36 -67 -54
-81 -32 -5 8 -9 29 -9 48 0 31 2 33 30 29 36 -5 39 5 5 20 -33 15 -85 130 -85
187 0 42 17 67 65 93 29 16 95 15 95 -1z m674 -55 c28 -15 51 -32 53 -37 2 -6
-12 -17 -32 -23 -19 -7 -43 -26 -54 -41 -11 -15 -37 -41 -58 -56 -21 -16 -31
-20 -21 -9 9 10 19 33 23 49 l6 30 -23 -25 c-43 -47 -64 -57 -32 -15 27 35 51
83 68 138 7 22 10 21 70 -11z m-487 -136 c20 -27 46 -49 68 -57 40 -15 42 -18
16 -45 -10 -11 -23 -29 -28 -40 -12 -23 -25 -84 -17 -84 21 0 86 38 117 68 35
34 39 36 49 18 34 -60 132 -124 144 -93 5 13 -24 86 -48 119 -18 25 -9 27 48
15 48 -10 51 -12 35 -26 -9 -9 -11 -12 -4 -8 6 5 18 5 24 1 8 -4 9 -3 5 4 -5
8 1 12 16 13 23 1 23 1 -2 9 -14 4 -38 11 -54 15 l-29 6 31 19 c17 10 50 40
73 65 49 53 92 79 119 70 14 -5 19 -18 22 -63 2 -31 0 -63 -6 -70 -16 -21 -56
-143 -56 -169 0 -13 4 -23 8 -23 5 0 5 -25 0 -57 -6 -40 -5 -58 3 -63 22 -14
-58 -120 -91 -120 -5 0 -11 19 -13 43 -3 39 -4 38 -5 -12 -2 -48 -4 -53 -22
-48 -13 3 -18 1 -13 -6 4 -6 0 -8 -10 -4 -10 3 -17 3 -17 -2 0 -13 -130 -21
-197 -12 -80 12 -130 36 -149 74 -15 27 -15 29 0 24 12 -5 11 2 -6 34 -16 31
-18 43 -9 49 9 5 6 23 -15 71 -14 35 -34 90 -43 121 -13 46 -19 55 -31 48 -12
-7 -12 -12 -2 -22 18 -18 15 -31 -5 -23 -12 4 -7 -5 11 -24 l29 -30 -34 -38
c-62 -70 -107 -101 -163 -113 -38 -8 -61 -8 -82 0 -36 14 -44 26 -44 72 0 27
5 40 19 48 32 17 40 12 43 -27 3 -35 6 -38 35 -41 18 -2 53 6 77 17 29 12 46
16 48 9 2 -6 14 6 27 27 17 29 21 47 16 69 -17 80 -17 114 0 140 14 20 16 39
12 76 -5 40 -3 51 11 60 18 10 28 2 89 -84z m613 -138 c0 -5 -7 -23 -16 -39
-15 -30 -15 -31 24 -83 l40 -52 71 -2 71 -3 0 41 c0 32 4 40 18 40 29 0 42
-21 42 -67 0 -38 -4 -44 -32 -59 -27 -14 -39 -15 -87 -4 -72 15 -122 48 -161
106 -27 39 -31 50 -22 69 8 17 8 25 0 27 -21 7 10 47 32 41 11 -3 20 -10 20
-15z m-116 -359 c-33 -35 -139 -112 -169 -123 -19 -7 -19 -8 -2 -18 19 -10 44
-8 82 8 40 16 -3 -22 -57 -51 -67 -36 -65 -33 -42 -49 16 -13 22 -13 42 0 13
9 32 24 43 35 24 24 44 24 69 -1 17 -17 20 -35 22 -132 l1 -113 6 87 c3 47 8
88 11 90 3 2 20 16 38 31 33 27 33 27 9 27 -24 0 -25 3 -29 66 -3 63 6 113 18
101 3 -3 14 -36 24 -74 17 -66 18 -68 50 -68 20 -1 37 -8 46 -20 13 -17 17
-18 37 -5 13 8 59 16 110 18 79 4 92 2 118 -17 l30 -22 30 25 c38 32 44 32 75
1 26 -26 42 -24 65 8 4 5 19 9 35 8 16 0 41 0 56 0 39 -1 89 -23 131 -60 l36
-32 57 47 c53 43 61 46 102 41 50 -5 82 -26 126 -80 27 -34 30 -46 34 -125 2
-48 -1 -99 -6 -113 -6 -14 -45 -54 -87 -88 -81 -65 -101 -71 -166 -47 -20 7
-44 9 -55 6 -10 -4 -42 -11 -70 -14 -41 -6 -54 -4 -68 10 -15 14 -23 15 -54 6
-111 -33 -452 -112 -484 -112 -23 0 -24 27 0 34 24 7 210 46 219 46 4 0 3 4
-2 9 -12 11 -317 14 -394 3 -49 -6 -53 -8 -37 -21 24 -20 46 -65 46 -94 0
-127 -180 -238 -490 -304 -121 -26 -374 -25 -448 0 -94 33 -150 99 -138 162
12 64 131 167 152 133 4 -6 -4 -20 -17 -30 -93 -73 -111 -111 -79 -163 27 -43
93 -71 203 -85 219 -27 612 77 729 193 34 33 38 43 38 86 0 43 -4 53 -30 75
-40 33 -98 49 -185 50 -67 1 -73 -1 -130 -41 -75 -52 -141 -85 -225 -113 -128
-42 -203 -36 -216 16 -12 48 7 77 74 110 61 30 62 32 33 37 -16 4 -45 22 -65
42 -19 19 -38 35 -41 35 -4 0 -27 -18 -53 -39 -26 -21 -57 -42 -69 -45 -37
-12 -92 5 -139 40 -37 29 -47 32 -63 22 -15 -9 -18 -19 -14 -49 7 -48 -16 -85
-62 -105 -42 -17 -117 -18 -133 -2 -17 17 -15 54 4 82 14 23 14 25 -7 40 -23
16 -27 15 -70 -16 -18 -14 -34 -17 -52 -13 -32 8 -77 59 -77 86 0 28 -13 23
-30 -13 -22 -47 -62 -72 -116 -72 -59 -1 -73 16 -58 72 9 34 8 40 -13 56 -30
22 -29 47 2 84 17 21 25 42 25 68 0 46 19 71 103 138 81 65 142 60 217 -17
l35 -36 60 50 c45 37 68 49 93 49 40 0 104 -31 129 -63 l19 -25 58 44 c36 28
68 44 86 44 34 0 92 -23 110 -44 17 -22 33 -20 56 5 10 12 32 28 47 36 25 13
31 13 53 -2 21 -13 24 -23 24 -73 1 -57 1 -57 14 -26 8 17 32 46 55 64 40 32
53 59 66 133 7 45 20 46 61 8 48 -45 111 -73 178 -78 58 -4 60 -4 41 12 -21
18 -29 22 -157 75 -43 17 -78 36 -78 41 0 5 10 5 23 0 50 -21 65 -23 132 -24
144 0 233 22 288 74 33 30 34 22 1 -12z m821 -720 c-4 -6 -1 -40 5 -76 12 -61
11 -66 -7 -85 -27 -27 -90 -29 -109 -4 -7 10 -16 39 -19 65 -3 25 -10 53 -15
62 -11 21 -3 29 29 29 23 0 26 -4 27 -38 1 -94 28 -142 61 -109 11 11 11 24 2
68 -6 30 -15 62 -20 71 -9 18 1 26 34 27 10 1 15 -4 12 -10z m-500 -109 c27
-30 10 -72 -32 -84 -28 -9 -32 -13 -26 -35 10 -44 9 -46 -18 -49 -16 -2 -26 2
-26 10 -1 31 -14 110 -23 133 -8 22 -6 25 18 31 15 3 32 7 37 9 27 9 54 3 70
-15z"/>
<path d="M2662 1960 c-7 -11 -19 -20 -27 -20 -11 0 -15 -12 -15 -44 0 -53 -19
-76 -64 -76 -43 0 -56 16 -56 66 0 58 -8 78 -26 63 -8 -6 -21 -9 -29 -5 -12 4
-15 -5 -15 -50 0 -91 41 -144 111 -144 20 0 42 7 49 15 7 8 16 15 21 15 5 0 9
-7 9 -15 0 -22 13 -18 43 13 24 24 27 36 26 88 -1 32 -4 72 -8 87 -6 27 -6 27
-19 7z"/>
<path d="M2812 1960 c-7 -11 -19 -20 -27 -20 -8 0 -15 -6 -15 -13 0 -8 -9 -22
-20 -32 -11 -10 -20 -22 -20 -27 0 -4 9 -8 20 -8 29 0 26 -41 -6 -79 l-26 -31
126 0 c118 0 126 1 141 23 l15 22 -85 3 -85 3 0 29 c0 27 3 29 41 32 30 2 46
9 57 26 14 22 14 22 -41 22 l-56 0 -3 35 c-3 33 -4 34 -16 15z"/>
<path d="M951 1957 c-7 -9 -20 -17 -28 -17 -7 0 -17 -8 -20 -17 -4 -10 -15
-27 -26 -38 -18 -20 -18 -20 2 -23 16 -3 21 -11 21 -37 0 -19 -5 -46 -10 -60
-10 -26 -9 -27 17 -20 44 11 63 34 63 77 l0 39 63 -3 c60 -3 62 -4 59 -29 -4
-38 14 -79 36 -79 28 0 59 37 44 52 -7 7 -12 44 -12 92 0 78 0 79 -19 62 -11
-10 -25 -15 -30 -11 -7 3 -11 -2 -11 -14 0 -19 -6 -21 -64 -21 l-65 0 -3 32
c-3 28 -4 30 -17 15z"/>
<path d="M3207 1958 c-3 -10 -16 -18 -27 -18 -19 0 -20 -6 -20 -95 0 -88 1
-95 18 -86 9 5 25 18 35 29 27 30 77 49 86 33 5 -8 25 -11 50 -9 l43 3 -20 26
-21 25 25 29 c27 32 35 76 9 55 -8 -7 -21 -10 -30 -7 -8 4 -19 -1 -24 -10 -8
-15 -12 -15 -25 -4 -14 12 -20 11 -41 -9 -28 -27 -28 -27 -41 20 -8 27 -11 31
-17 18z"/>
<path d="M1265 1950 c-3 -5 -15 -10 -26 -10 -16 0 -19 -7 -19 -52 0 -61 26
-112 65 -130 14 -6 32 -22 40 -35 15 -22 14 -24 -17 -53 l-33 -29 31 -1 c34 0
84 33 84 55 0 7 -8 21 -17 30 -16 16 -13 21 45 75 39 36 62 65 62 79 0 28 -3
27 -48 -14 -51 -45 -82 -57 -113 -41 -21 10 -24 20 -27 74 -3 58 -12 76 -27
52z"/>
<path d="M1554 1949 c-3 -6 -15 -9 -25 -6 -17 5 -19 -1 -19 -44 0 -94 41 -149
110 -149 27 0 43 7 61 27 13 15 16 21 7 14 -21 -16 -48 -8 -48 14 0 8 -9 15
-20 15 -27 0 -40 29 -40 89 0 48 -10 64 -26 40z"/>
<path d="M2163 1946 c-20 -9 -23 -19 -23 -69 0 -54 3 -62 34 -93 48 -48 92
-47 135 1 55 63 53 118 -5 123 -21 1 -34 -5 -47 -23 l-18 -25 41 0 c46 0 50
-16 10 -37 -49 -24 -90 18 -90 95 0 44 -2 46 -37 28z"/>
<path d="M3500 1949 c0 -7 -11 -9 -26 -6 l-26 5 4 -62 c4 -54 9 -65 41 -98 53
-56 89 -53 161 13 55 50 56 52 56 105 0 50 -10 68 -25 44 -4 -6 -14 -9 -23 -8
-14 2 -18 -7 -20 -49 -3 -57 -18 -75 -59 -75 -39 0 -63 34 -63 93 0 27 -4 49
-10 49 -5 0 -10 -5 -10 -11z"/>
<path d="M2015 1928 c-2 -7 -6 -31 -7 -53 -2 -30 -9 -42 -26 -51 -37 -18 -75
-3 -87 34 -7 26 -13 31 -30 26 -50 -16 -52 -54 -5 -104 33 -35 91 -41 123 -12
15 12 21 14 24 5 7 -20 27 -15 51 10 18 19 22 35 22 90 l0 67 -30 0 c-17 0
-33 -6 -35 -12z"/>
<path d="M2313 1770 l-43 -47 -127 -12 c-146 -14 -251 -34 -292 -56 -35 -18
-61 -42 -61 -58 0 -6 7 -1 16 11 31 44 154 77 331 87 92 6 97 5 78 -10 -84
-69 -270 -145 -356 -145 -42 0 -51 3 -59 23 l-9 22 0 -23 c-3 -82 235 -23 421
105 l67 46 78 -6 c146 -10 210 -47 223 -128 l7 -44 2 44 c1 36 -4 48 -32 76
-41 41 -117 65 -204 65 l-64 0 37 45 c49 60 40 63 -13 5z"/>
<path d="M2079 1679 c-171 -18 -274 -57 -267 -103 4 -28 47 -32 129 -11 68 18
187 73 229 105 29 23 32 22 -91 9z"/>
<path d="M1620 1533 c-38 -32 -80 -95 -80 -121 0 -35 67 -99 128 -123 161 -61
509 -20 735 88 95 46 177 113 177 145 0 7 -10 -1 -21 -19 -85 -133 -539 -262
-789 -224 -134 21 -210 73 -210 145 0 29 50 90 95 118 19 11 24 18 13 18 -9 0
-31 -12 -48 -27z"/>
</g>
</svg>
