<?xml version="1.0" standalone="no"?>
<!DOCTYPE svg PUBLIC "-//W3C//DTD SVG 20010904//EN"
 "http://www.w3.org/TR/2001/REC-SVG-20010904/DTD/svg10.dtd">
<svg version="1.0" xmlns="http://www.w3.org/2000/svg"
 width="472.000000pt" height="472.000000pt" viewBox="0 0 472.000000 472.000000"
 preserveAspectRatio="xMidYMid meet">

<g transform="translate(0.000000,472.000000) scale(0.100000,-0.100000)"
fill="#000000" stroke="none">
<path d="M2195 4393 c-49 -31 -216 -128 -370 -216 -154 -89 -334 -192 -400
-230 -66 -38 -145 -84 -176 -101 -30 -17 -205 -116 -387 -220 l-332 -190 -1
-65 c-1 -37 -3 -84 -4 -106 -6 -145 -5 -1899 2 -1905 10 -11 1061 -623 1273
-742 19 -11 60 -35 90 -53 30 -18 75 -44 100 -58 25 -13 97 -54 160 -91 63
-36 122 -66 131 -66 8 0 44 18 80 39 35 21 267 155 514 296 248 142 465 266
483 276 30 18 45 27 135 78 17 10 120 69 227 131 107 62 230 133 273 158 50
29 79 52 83 66 3 12 0 299 -5 637 -6 338 -12 758 -12 934 -1 176 -4 351 -8
389 l-6 68 -295 174 c-162 96 -353 209 -425 251 -526 309 -964 571 -986 590
-26 22 -49 14 -144 -44z m149 -37 c17 -12 229 -140 471 -283 242 -143 487
-289 545 -323 58 -35 119 -71 135 -80 140 -81 481 -286 486 -293 6 -8 24
-1362 24 -1777 l0 -195 -385 -223 c-212 -122 -392 -226 -400 -229 -8 -4 -78
-44 -155 -88 -275 -161 -706 -410 -750 -435 l-45 -25 -64 35 c-35 19 -420 242
-855 495 l-792 460 6 995 c5 723 10 998 19 1006 6 6 137 83 291 172 154 88
534 307 845 486 311 179 571 326 579 326 8 0 28 -11 45 -24z"/>
<path d="M2195 4291 c-44 -26 -188 -110 -320 -186 -132 -76 -346 -199 -475
-273 -129 -75 -359 -206 -510 -293 l-275 -158 -6 -68 c-4 -37 -9 -480 -12
-984 l-6 -917 157 -90 c86 -50 222 -128 302 -174 80 -47 289 -168 465 -270
176 -102 418 -242 538 -312 l218 -127 47 29 c26 17 256 151 512 298 256 147
528 304 605 348 77 45 231 133 343 196 l203 115 -5 180 c-3 99 -8 441 -11 760
-3 319 -8 675 -11 790 l-6 211 -62 35 c-33 20 -371 219 -751 444 -379 225
-706 417 -725 429 -19 11 -48 30 -63 43 -16 13 -38 23 -50 22 -12 -1 -58 -22
-102 -48z m173 -564 c24 -12 61 -36 83 -55 51 -44 179 -216 179 -241 0 -19
-43 -61 -63 -61 -5 0 -27 18 -48 40 -41 42 -164 110 -200 110 -17 0 -20 4 -15
23 16 55 18 77 8 77 -15 0 -24 -18 -12 -22 7 -2 7 -13 0 -34 -11 -30 -13 -31
-90 -37 -77 -6 -141 -25 -154 -45 -3 -6 18 -1 47 10 43 17 69 19 147 16 87 -4
103 -8 167 -42 94 -49 137 -96 129 -139 -3 -18 -9 -51 -12 -74 -4 -24 -10 -43
-15 -43 -5 0 -20 17 -33 38 -54 86 -137 131 -240 132 -82 0 -134 -14 -171 -46
-16 -13 -29 -24 -29 -24 -1 0 0 19 1 43 l2 42 -10 -48 c-6 -32 -6 -54 1 -67
15 -28 4 -43 -22 -29 -34 18 -108 91 -124 120 -35 69 -9 128 110 245 51 50
105 99 118 108 59 39 170 40 246 3z m-829 -17 c0 -10 -3 -8 -9 5 -12 27 -12
43 0 25 5 -8 9 -22 9 -30z m-14 -30 c-3 -5 -12 -10 -18 -10 -7 0 -6 4 3 10 19
12 23 12 15 0z m-1 -52 c6 -29 19 -48 28 -42 6 4 8 -4 7 -17 -2 -13 4 -35 13
-49 17 -26 22 -80 7 -80 -8 0 -10 6 -13 43 -1 6 -7 16 -13 20 -7 4 -13 16 -13
25 0 9 -9 37 -20 61 -11 23 -17 47 -14 53 7 11 14 6 18 -14z m-184 -54 c0 -4
-9 1 -20 11 -11 10 -20 23 -20 28 0 6 9 1 20 -11 11 -12 20 -24 20 -28z m1950
36 c0 -17 -47 -117 -74 -157 -21 -31 -36 -41 -83 -54 -32 -8 -57 -20 -56 -26
2 -11 -34 -29 -42 -21 -7 7 232 268 246 268 5 0 9 -4 9 -10z m-1955 -60 c-3
-5 -12 -10 -18 -10 -7 0 -6 4 3 10 19 12 23 12 15 0z m10 -51 c4 -11 18 -24
31 -29 14 -6 24 -16 22 -25 -2 -8 10 -25 25 -37 15 -13 29 -31 31 -40 1 -10
12 -27 24 -38 23 -22 30 -50 12 -50 -6 0 -14 8 -17 18 -7 18 -72 102 -124 160
-28 32 -38 62 -20 62 5 0 13 -9 16 -21z m130 -37 c-3 -3 -11 0 -18 7 -9 10 -8
11 6 5 10 -3 15 -9 12 -12z m185 14 c0 -3 -4 -8 -10 -11 -5 -3 -10 -1 -10 4 0
6 5 11 10 11 6 0 10 -2 10 -4z m-50 -87 c0 -11 -4 -17 -10 -14 -5 3 -10 15
-10 26 0 11 5 17 10 14 6 -3 10 -15 10 -26z m-90 7 c0 -8 -4 -17 -9 -20 -10
-7 -23 19 -14 28 11 11 23 6 23 -8z m1673 -3 c3 -5 8 -34 12 -65 7 -55 6 -58
-14 -58 -16 0 -21 6 -21 28 0 15 -4 41 -9 59 -7 22 -6 33 2 37 18 7 25 7 30
-1z m-1643 -17 c0 -3 -4 -8 -10 -11 -5 -3 -10 -1 -10 4 0 6 5 11 10 11 6 0 10
-2 10 -4z m1590 -18 c0 -13 3 -40 6 -60 6 -33 4 -38 -13 -38 -15 0 -21 11 -29
55 -11 61 -10 65 18 65 12 0 18 -7 18 -22z m-781 -18 c61 -31 66 -40 63 -103
-3 -46 -7 -57 -21 -57 -22 0 -41 19 -41 42 0 45 -86 43 -118 -3 -19 -27 -51
-24 -62 6 -13 33 -56 50 -89 35 -13 -6 -26 -9 -28 -6 -7 7 5 38 26 65 39 51
189 63 270 21z m680 -77 c0 -13 -3 -23 -9 -23 -13 0 -24 66 -15 87 7 15 9 13
15 -12 4 -16 8 -40 9 -52z m44 60 c18 -65 17 -93 -3 -113 -25 -25 -71 -26 -93
-2 -9 9 -20 37 -26 60 -7 36 -6 44 6 49 16 6 33 -13 33 -39 0 -30 12 -48 31
-48 16 0 19 8 19 55 0 41 4 55 14 55 8 0 17 -8 19 -17z m-1453 -8 c0 -8 -4
-15 -10 -15 -5 0 -10 7 -10 15 0 8 5 15 10 15 6 0 10 -7 10 -15z m1313 -74
l39 -53 -50 7 c-34 4 -56 2 -70 -6 -31 -20 -36 -5 -16 48 30 79 41 80 97 4z
m-1279 4 c9 -19 17 -38 18 -42 1 -5 8 -13 16 -19 14 -10 14 -13 0 -28 -9 -9
-20 -16 -24 -16 -4 0 -4 3 -1 6 4 4 -3 15 -14 25 -14 12 -17 19 -8 25 9 5 4
14 -17 32 -21 17 -23 21 -6 13 22 -12 33 1 12 14 -5 3 -10 13 -10 21 0 23 15
9 34 -31z m1152 1 c10 -43 1 -60 -38 -70 -54 -13 -88 4 -88 45 0 24 4 30 18
27 9 -2 18 -13 20 -26 3 -16 10 -22 29 -22 24 0 25 3 20 35 -5 30 -3 35 13 35
12 0 22 -9 26 -24z m400 -1 c4 -8 3 -23 0 -32 -6 -15 -8 -15 -23 -1 -16 17
-12 48 7 48 6 0 13 -7 16 -15z m-1624 -62 c25 -23 44 -44 42 -47 -2 -3 -1 -4
3 -1 3 3 12 0 20 -6 10 -9 11 -15 1 -26 -9 -11 -9 -16 3 -24 8 -5 10 -9 4 -9
-16 0 -29 12 -60 54 -16 21 -42 52 -57 68 -15 17 -28 38 -28 47 1 14 2 14 13
1 7 -8 33 -34 59 -57z m1566 39 c3 -19 -1 -23 -15 -20 -10 2 -19 14 -21 26 -3
19 1 23 15 20 10 -2 19 -14 21 -26z m-1428 3 c0 -8 -4 -15 -10 -15 -5 0 -7 7
-4 15 4 8 8 15 10 15 2 0 4 -7 4 -15z m500 -54 c29 -55 95 -71 124 -29 13 19
19 20 41 10 20 -9 25 -19 25 -47 0 -46 13 -38 30 17 16 52 29 70 42 62 6 -4 4
-10 -6 -16 -9 -5 -16 -14 -16 -21 0 -7 4 -6 10 3 11 17 16 13 24 -20 8 -30
-27 -92 -46 -85 -9 4 -18 -12 -28 -47 -9 -32 -21 -53 -29 -53 -8 0 -23 -17
-34 -39 -22 -42 -83 -91 -126 -101 -49 -11 -78 9 -112 77 -42 83 -79 193 -79
235 0 38 -2 37 38 17 36 -17 63 -8 95 33 22 28 33 29 47 4z m696 8 c4 -7 21
-9 46 -5 48 8 47 3 -8 -73 -39 -55 -61 -62 -79 -24 -6 11 -17 28 -24 37 -12
14 -11 20 5 39 33 39 48 45 60 26z m-1276 -15 c0 -2 -7 -4 -15 -4 -8 0 -15 4
-15 10 0 5 7 7 15 4 8 -4 15 -8 15 -10z m1202 -132 c34 -20 62 -75 52 -105
-22 -73 -68 -166 -87 -176 -21 -11 -21 -11 3 -5 14 4 33 13 42 21 37 33 88
-35 88 -118 0 -38 -2 -41 -22 -34 -51 15 -60 12 -72 -30 -11 -36 -14 -40 -41
-37 -45 6 -87 26 -117 57 -32 31 -35 47 -13 69 8 8 15 23 15 34 0 11 6 25 13
31 11 9 16 3 26 -29 13 -45 43 -70 83 -70 33 0 55 39 38 68 -7 14 -9 10 -10
-15 0 -29 -3 -33 -27 -33 -36 0 -47 8 -67 47 -11 23 -14 45 -10 73 6 36 4 40
-21 50 -14 6 -31 8 -35 5 -5 -3 -14 4 -20 15 -17 31 3 58 48 63 32 3 34 5 15
12 -33 11 -29 21 25 52 44 26 46 28 20 31 -27 3 -43 26 -32 44 8 13 71 1 106
-20z m56 8 c12 0 13 -3 5 -11 -9 -9 -16 -8 -27 3 -8 9 -12 19 -8 22 4 4 8 2
10 -3 2 -6 11 -11 20 -11z m-1218 -5 c7 -9 8 -15 2 -15 -5 0 -12 7 -16 15 -3
8 -4 15 -2 15 2 0 9 -7 16 -15z m190 2 c0 -19 -20 -36 -36 -30 -25 9 -15 -12
14 -30 60 -37 59 -35 37 -51 -19 -15 -19 -15 12 -16 21 0 36 -7 43 -19 12 -23
3 -51 -16 -51 -34 0 -64 -24 -63 -49 2 -24 2 -24 6 -3 2 12 8 22 13 22 16 0
42 -62 37 -87 -3 -14 3 -38 12 -54 15 -27 15 -29 -14 -59 -41 -43 -76 -60
-125 -60 l-40 0 0 41 c0 44 0 45 -67 24 -21 -7 -23 -4 -23 26 0 56 19 108 46
126 35 23 48 5 49 -65 0 -57 0 -57 32 -60 37 -4 83 33 83 65 0 13 -6 8 -20
-14 -22 -36 -67 -54 -81 -32 -5 8 -9 29 -9 48 0 31 2 33 30 29 36 -5 39 5 5
20 -33 15 -85 130 -85 187 0 42 17 67 65 93 29 16 95 15 95 -1z m674 -55 c28
-15 51 -32 53 -37 2 -6 -12 -17 -32 -23 -19 -7 -43 -26 -54 -41 -11 -15 -37
-41 -58 -56 -22 -17 -31 -21 -22 -9 22 25 33 64 19 64 -6 0 -13 -6 -16 -14 -3
-8 -17 -22 -31 -32 -25 -16 -25 -15 4 22 26 35 50 82 67 137 7 22 10 21 70
-11z m-492 -9 c0 -10 0 -31 -1 -46 -1 -16 3 -35 10 -43 6 -8 10 -17 7 -19 -3
-3 -18 14 -34 37 -16 24 -33 46 -39 50 -6 4 -2 13 10 22 27 20 45 20 47 -1z
m-14 -102 c36 -50 60 -73 86 -82 20 -7 36 -15 36 -19 0 -3 -11 -18 -25 -34
-24 -28 -52 -103 -42 -113 10 -10 84 30 120 65 35 34 39 36 49 18 34 -60 132
-124 144 -93 5 13 -24 86 -48 119 -18 25 -9 27 48 15 48 -10 51 -12 35 -26 -9
-9 -11 -12 -4 -8 6 5 18 5 24 1 8 -4 9 -3 5 4 -5 8 1 12 16 13 23 1 23 1 -2 9
-14 4 -38 11 -54 15 l-29 6 31 19 c17 10 50 40 73 65 49 53 92 79 119 70 14
-5 19 -18 22 -63 2 -31 0 -63 -6 -70 -16 -21 -56 -143 -56 -169 0 -13 4 -23 8
-23 5 0 5 -25 0 -57 -6 -40 -5 -58 3 -63 22 -14 -58 -120 -91 -120 -5 0 -11
19 -13 43 -3 39 -4 38 -5 -12 -2 -48 -4 -53 -22 -48 -13 3 -18 1 -13 -6 4 -6
0 -8 -10 -4 -10 3 -17 3 -17 -2 0 -13 -130 -21 -197 -12 -80 12 -130 36 -149
74 -15 27 -15 29 0 24 12 -5 11 2 -6 34 -16 31 -18 43 -9 49 9 5 6 23 -15 71
-14 35 -34 90 -43 121 -13 46 -19 55 -31 48 -12 -7 -12 -12 -2 -22 18 -18 15
-31 -5 -23 -12 4 -7 -5 11 -24 l29 -30 -34 -38 c-62 -70 -107 -101 -163 -113
-38 -8 -61 -8 -82 0 -36 14 -44 26 -44 72 0 27 5 40 19 48 32 17 40 12 43 -27
3 -35 6 -38 35 -41 18 -2 53 6 77 17 29 12 46 16 48 9 2 -6 14 6 27 27 17 29
21 47 16 69 -17 80 -17 114 0 140 13 19 16 39 12 72 -3 31 0 49 10 59 8 8 16
15 17 15 2 0 26 -31 54 -69z m290 -124 c36 -33 25 -41 -13 -10 -19 15 -35 32
-35 36 0 10 18 0 48 -26z m-157 -10 c-18 -20 -33 -46 -34 -62 -1 -16 -8 -30
-14 -32 -22 -8 5 59 39 94 17 18 34 33 37 33 3 0 -10 -15 -28 -33z m499 -29
c0 -5 -7 -23 -16 -39 -15 -30 -15 -31 24 -83 l40 -52 71 -2 71 -3 0 41 c0 32
4 40 18 40 29 0 42 -21 42 -67 0 -38 -4 -44 -32 -59 -27 -14 -39 -15 -87 -4
-72 15 -122 48 -161 106 -27 39 -31 50 -22 69 8 17 8 25 0 27 -21 7 10 47 32
41 11 -3 20 -10 20 -15z m-322 -56 c20 -18 26 -8 12 18 -6 12 -9 24 -7 27 7 6
27 -31 32 -58 2 -10 1 -19 -3 -19 -16 0 -82 52 -93 73 -11 21 -10 21 17 -3 15
-14 34 -31 42 -38z m206 -303 c-33 -35 -139 -112 -169 -123 -19 -7 -19 -8 -2
-18 19 -10 44 -8 82 8 40 16 -3 -22 -57 -51 -67 -36 -65 -33 -42 -49 16 -13
22 -13 42 0 13 9 32 24 43 35 24 24 44 24 69 -1 17 -17 20 -35 22 -132 l1
-113 6 87 c3 47 8 88 11 90 3 2 20 16 38 31 33 27 33 27 9 27 -24 0 -25 3 -29
66 -2 37 2 75 9 87 12 23 11 26 41 -93 7 -31 12 -35 41 -35 21 -1 38 -8 47
-20 13 -17 17 -18 37 -5 13 8 59 16 110 18 79 4 92 2 118 -17 l30 -22 30 25
c38 32 44 32 75 1 26 -26 42 -24 65 8 4 5 19 9 35 8 16 0 41 0 56 0 39 -1 89
-23 131 -60 l36 -32 57 47 c53 43 61 46 102 41 50 -5 82 -26 126 -80 27 -34
30 -46 34 -125 2 -48 -1 -99 -6 -113 -6 -14 -45 -54 -87 -88 -81 -65 -101 -71
-166 -47 -20 7 -44 9 -55 6 -10 -4 -42 -11 -70 -14 -41 -6 -54 -4 -68 10 -15
14 -23 15 -54 6 -111 -33 -452 -112 -484 -112 -20 0 -25 25 -5 32 6 3 63 15
125 28 66 14 108 27 100 31 -18 10 -327 11 -397 1 -49 -6 -53 -8 -37 -21 24
-20 46 -65 46 -94 0 -127 -180 -238 -490 -304 -121 -26 -374 -25 -448 0 -94
33 -150 99 -138 162 12 64 131 167 152 133 4 -6 -4 -20 -17 -30 -51 -40 -81
-72 -90 -96 -28 -73 54 -132 211 -151 221 -28 615 75 732 192 34 33 38 43 38
86 0 43 -4 53 -30 75 -40 33 -98 49 -185 50 -67 1 -73 -1 -130 -41 -75 -52
-141 -85 -225 -113 -128 -42 -203 -36 -216 16 -12 48 7 77 74 110 61 30 62 32
33 37 -16 4 -45 22 -65 42 -19 19 -38 35 -41 35 -4 0 -27 -18 -53 -39 -26 -21
-57 -42 -69 -45 -37 -12 -92 5 -139 40 -37 29 -47 32 -63 22 -15 -9 -18 -19
-14 -49 7 -48 -16 -85 -62 -105 -42 -17 -117 -18 -133 -2 -17 17 -15 54 4 82
14 23 14 25 -7 40 -23 16 -27 15 -70 -16 -18 -14 -34 -17 -52 -13 -32 8 -77
59 -77 86 0 28 -13 23 -30 -13 -22 -47 -62 -72 -116 -72 -58 -1 -72 16 -58 70
8 33 6 41 -13 61 -29 28 -29 45 2 81 17 21 25 42 25 68 0 46 19 71 103 138 81
65 142 60 217 -17 l35 -36 60 50 c45 37 68 49 93 49 40 0 104 -31 129 -63 l19
-25 58 44 c75 57 129 57 194 0 16 -14 27 -17 36 -11 88 66 95 68 121 51 22
-14 25 -24 25 -74 1 -57 1 -57 14 -26 8 17 32 46 55 64 40 32 53 59 66 133 7
45 22 47 63 8 47 -46 109 -73 176 -78 58 -4 60 -4 41 12 -21 18 -29 22 -157
75 -43 17 -78 36 -78 41 0 5 10 5 23 0 50 -21 65 -23 132 -24 145 0 223 18
280 67 41 35 45 33 9 -5z m1026 -699 c0 -21 -15 -27 -25 -10 -11 18 -45 11
-45 -9 0 -13 13 -24 39 -35 41 -16 57 -42 46 -74 -11 -37 -97 -57 -109 -26 -9
24 1 29 28 15 13 -8 29 -10 36 -6 20 13 6 38 -35 59 -72 37 -51 106 32 106 26
0 33 -4 33 -20z m-140 -14 c0 -13 -7 -29 -15 -36 -17 -14 -16 -15 -20 28 -2
26 1 32 16 32 13 0 19 -7 19 -24z m-775 -23 c7 -30 -12 -48 -32 -31 -13 11
-18 50 -7 61 12 11 32 -5 39 -30z m710 16 c-4 -6 -1 -40 5 -76 12 -61 11 -66
-7 -85 -27 -27 -90 -29 -109 -4 -7 10 -16 39 -19 65 -3 25 -10 53 -15 62 -11
21 -3 29 29 29 23 0 26 -4 27 -38 1 -94 28 -142 61 -109 11 11 11 24 2 68 -6
30 -15 62 -20 71 -9 18 1 26 34 27 10 1 15 -4 12 -10z m-175 -44 c0 -14 -4
-25 -10 -25 -5 0 -10 5 -10 10 0 6 -7 10 -15 10 -8 0 -15 -7 -15 -15 0 -28 22
-120 32 -132 8 -10 5 -13 -10 -13 -11 0 -27 -2 -35 -5 -10 -5 -14 4 -15 36 -2
52 -20 119 -31 119 -5 0 -11 -7 -15 -15 -8 -21 -23 -19 -29 5 -4 16 3 21 52
30 31 6 61 13 66 15 25 9 35 3 35 -20z m-170 -35 c0 -21 -15 -27 -25 -10 -3 6
-15 10 -26 10 -14 0 -19 -7 -19 -24 0 -29 17 -43 33 -27 18 18 27 13 27 -14 0
-22 -3 -25 -27 -19 -22 6 -25 4 -20 -10 4 -10 7 -26 7 -37 0 -25 25 -24 44 2
15 22 36 18 36 -6 0 -16 -16 -22 -81 -31 -30 -4 -50 -3 -47 2 5 7 -9 98 -23
154 -4 14 32 26 94 29 21 1 27 -4 27 -19z m-155 -30 c27 -30 10 -72 -32 -84
-28 -9 -32 -13 -26 -35 10 -44 9 -46 -18 -49 -16 -2 -26 2 -26 10 -1 31 -14
110 -23 133 -8 22 -6 25 18 31 15 3 32 7 37 9 27 9 54 3 70 -15z m-158 -15 c8
-23 -5 -31 -28 -17 -23 15 -39 8 -39 -16 0 -11 17 -25 43 -37 74 -35 56 -102
-29 -108 -34 -2 -39 1 -42 21 -4 26 5 28 30 5 17 -15 20 -15 34 -1 20 20 11
36 -32 54 -81 34 -53 106 44 113 7 1 15 -6 19 -14z"/>
<path d="M1964 3468 c-4 -7 -3 -8 5 -4 18 11 51 -4 61 -27 8 -19 9 -20 9 -3 2
34 -58 62 -75 34z"/>
<path d="M2090 3301 c-9 -18 -7 -19 34 -17 77 5 95 36 21 36 -34 0 -47 -5 -55
-19z"/>
<path d="M2283 3313 c-41 -8 -15 -33 34 -33 24 0 53 -5 64 -10 16 -9 19 -7 19
9 0 34 -46 48 -117 34z"/>
<path d="M2190 3140 c-20 -15 -23 -23 -14 -36 6 -10 17 -20 25 -23 9 -3 8 1
-4 13 -22 23 -22 33 3 41 11 3 20 11 20 16 0 12 -1 12 -30 -11z"/>
<path d="M2190 3004 c5 -12 6 -31 4 -42 -7 -23 23 -34 68 -25 25 5 88 63 88
81 0 4 -38 7 -84 8 -83 0 -84 0 -76 -22z m89 -5 c-16 -6 -35 -6 -50 0 -20 8
-16 10 26 10 43 -1 46 -2 24 -10z"/>
<path d="M2213 2903 c9 -2 23 -2 30 0 6 3 -1 5 -18 5 -16 0 -22 -2 -12 -5z"/>
<path d="M2490 2684 c0 -8 5 -12 10 -9 6 4 8 11 5 16 -9 14 -15 11 -15 -7z"/>
<path d="M2492 2560 c0 -14 2 -19 5 -12 2 6 2 18 0 25 -3 6 -5 1 -5 -13z"/>
<path d="M2426 2542 c-2 -4 4 -8 14 -8 10 0 16 4 14 8 -3 4 -9 8 -14 8 -5 0
-11 -4 -14 -8z"/>
<path d="M2480 2510 c0 -5 5 -10 10 -10 6 0 10 5 10 10 0 6 -4 10 -10 10 -5 0
-10 -4 -10 -10z"/>
<path d="M2430 2476 c7 -7 13 -7 20 0 6 6 3 10 -10 10 -13 0 -16 -4 -10 -10z"/>
<path d="M2416 2391 c-4 -5 3 -7 14 -4 23 6 26 13 6 13 -8 0 -17 -4 -20 -9z"/>
<path d="M2168 2168 c19 -19 14 -28 -13 -28 -21 0 -25 -5 -25 -30 0 -16 2 -30
5 -30 9 0 105 74 105 81 0 4 -14 9 -31 13 -47 9 -55 8 -41 -6z"/>
<path d="M972 2060 c-23 -22 -42 -42 -42 -44 0 -2 17 1 38 7 55 15 138 12 168
-8 25 -16 26 -16 19 7 -12 40 -61 78 -103 78 -30 0 -46 -8 -80 -40z"/>
<path d="M1283 2054 c-26 -25 -42 -42 -35 -39 25 13 152 26 152 15 0 -3 8 -6
18 -6 9 -1 25 -4 35 -9 27 -12 21 19 -12 54 -23 25 -37 31 -69 31 -34 0 -48
-7 -89 -46z"/>
<path d="M1573 2056 l-48 -45 56 15 c54 13 112 10 162 -11 28 -12 21 23 -12
56 -23 22 -39 29 -69 29 -33 0 -48 -7 -89 -44z"/>
<path d="M1847 2072 c-32 -33 -34 -42 -8 -42 11 0 23 -4 26 -10 14 -23 25 -7
25 35 0 25 -4 45 -8 45 -5 0 -20 -13 -35 -28z"/>
<path d="M2038 2075 c-33 -28 -36 -45 -9 -45 11 0 23 -4 26 -10 14 -23 25 -7
25 35 0 25 -3 45 -7 45 -5 0 -20 -12 -35 -25z"/>
<path d="M2207 2062 c-35 -36 -49 -61 -27 -47 34 21 152 24 176 4 23 -19 17
24 -7 55 -16 21 -29 26 -63 26 -35 0 -48 -6 -79 -38z"/>
<path d="M2458 2079 c-30 -22 -40 -63 -13 -53 8 4 21 1 29 -5 16 -14 26 5 26
50 0 34 -6 35 -42 8z"/>
<path d="M2648 2075 c-29 -25 -38 -58 -14 -49 7 3 20 -2 29 -10 13 -13 15 -12
21 16 8 41 8 68 -1 68 -5 0 -20 -12 -35 -25z"/>
<path d="M2788 2089 c-22 -12 -24 -59 -4 -59 8 0 22 -7 30 -16 15 -14 16 -13
16 10 0 24 3 26 43 26 33 0 49 6 67 25 l23 25 -79 0 c-43 0 -87 -5 -96 -11z"/>
<path d="M3047 2072 c-33 -35 -34 -42 -2 -42 14 0 25 -4 25 -10 0 -5 5 -10 10
-10 6 0 10 20 10 45 0 25 -4 45 -8 45 -5 0 -20 -13 -35 -28z"/>
<path d="M3188 2075 c-32 -28 -36 -45 -10 -45 10 0 23 -5 29 -11 8 -8 13 -5
18 10 8 25 21 26 108 2 57 -16 67 -16 67 -4 0 8 -14 28 -31 44 -37 34 -78 38
-104 9 -10 -11 -22 -20 -27 -20 -4 0 -8 9 -8 20 0 26 -9 25 -42 -5z"/>
<path d="M3517 2057 c-46 -41 -47 -42 -20 -41 16 0 38 6 50 12 23 12 104 6
136 -10 30 -16 20 28 -14 56 -47 40 -93 35 -152 -17z"/>
<path d="M1995 1956 c-94 -27 -223 -82 -291 -125 -66 -41 -46 -39 30 3 241
134 479 172 588 95 29 -21 43 -24 32 -8 -3 6 -31 22 -61 35 -72 32 -185 32
-298 0z"/>
<path d="M2662 1960 c-7 -11 -19 -20 -27 -20 -11 0 -15 -12 -15 -44 0 -53 -19
-76 -64 -76 -43 0 -56 16 -56 70 0 49 -13 80 -24 61 -4 -6 -16 -11 -27 -11
-16 0 -19 -7 -19 -50 0 -57 19 -101 52 -124 29 -20 92 -21 108 -1 7 8 16 15
21 15 5 0 9 -7 9 -15 0 -22 13 -18 43 13 24 24 27 36 26 88 -1 32 -4 72 -8 87
-6 27 -6 27 -19 7z"/>
<path d="M2812 1960 c-7 -11 -19 -20 -27 -20 -8 0 -15 -6 -15 -13 0 -8 -9 -22
-20 -32 -11 -10 -20 -22 -20 -27 0 -4 9 -8 20 -8 29 0 26 -41 -6 -79 l-26 -31
126 0 c118 0 126 1 141 23 l15 22 -85 3 -85 3 0 29 c0 27 3 29 41 32 30 2 46
9 57 26 14 22 14 22 -41 22 l-56 0 -3 35 c-3 33 -4 34 -16 15z"/>
<path d="M951 1957 c-7 -9 -20 -17 -28 -17 -7 0 -17 -8 -20 -17 -4 -10 -15
-27 -26 -38 -18 -20 -18 -20 2 -23 16 -3 21 -11 21 -37 0 -19 -5 -46 -10 -60
-10 -26 -9 -27 17 -20 44 11 63 34 63 77 l0 39 63 -3 c60 -3 62 -4 59 -29 -4
-38 14 -79 36 -79 28 0 59 37 44 52 -7 7 -12 44 -12 92 0 78 0 79 -19 62 -11
-10 -25 -15 -30 -11 -7 3 -11 -2 -11 -14 0 -19 -6 -21 -64 -21 l-65 0 -3 32
c-3 28 -4 30 -17 15z"/>
<path d="M1740 1955 c-7 -8 -19 -15 -26 -15 -10 0 -14 -13 -14 -45 0 -25 2
-45 3 -45 2 0 18 7 35 16 29 14 32 20 32 60 0 46 -9 54 -30 29z"/>
<path d="M1860 1955 c-7 -8 -19 -15 -26 -15 -8 0 -14 -7 -14 -16 0 -11 5 -14
18 -9 9 4 25 10 35 12 9 3 17 14 17 24 0 23 -13 24 -30 4z"/>
<path d="M3066 1954 c-4 -10 -14 -14 -26 -11 -19 5 -20 0 -20 -99 l0 -105 35
28 c35 28 35 28 35 110 0 78 -11 112 -24 77z"/>
<path d="M3207 1958 c-3 -10 -16 -18 -27 -18 -19 0 -20 -6 -20 -95 0 -88 1
-95 18 -86 9 5 25 18 35 29 27 30 77 49 86 33 5 -8 25 -11 50 -9 l43 3 -20 26
-21 25 25 29 c27 32 35 76 9 55 -8 -7 -21 -10 -30 -7 -8 4 -19 -1 -24 -10 -8
-15 -12 -15 -25 -4 -14 12 -20 11 -41 -9 -28 -27 -28 -27 -41 20 -8 27 -11 31
-17 18z m45 -83 c0 -5 -5 -11 -11 -13 -6 -2 -11 4 -11 13 0 9 5 15 11 13 6 -2
11 -8 11 -13z"/>
<path d="M1265 1950 c-3 -5 -15 -10 -26 -10 -16 0 -19 -7 -19 -52 0 -61 26
-112 65 -130 14 -6 32 -22 40 -35 15 -22 14 -24 -17 -53 l-33 -29 31 -1 c34 0
84 33 84 55 0 7 -8 21 -17 30 -16 16 -13 21 45 75 39 36 62 65 62 79 0 28 -3
27 -48 -14 -51 -45 -82 -57 -113 -41 -21 10 -24 20 -27 74 -3 58 -12 76 -27
52z"/>
<path d="M1555 1950 c-3 -5 -15 -10 -26 -10 -16 0 -19 -7 -19 -45 0 -90 42
-145 110 -145 27 0 43 7 61 27 13 15 16 21 7 14 -22 -16 -52 -7 -44 14 4 11
-2 15 -19 15 -32 0 -45 26 -45 89 0 47 -10 65 -25 41z"/>
<path d="M2163 1946 c-20 -9 -23 -19 -23 -69 0 -54 3 -62 34 -93 48 -48 92
-47 135 1 53 60 53 117 0 123 -16 2 -33 -6 -49 -23 l-23 -25 42 0 c47 0 52
-16 11 -37 -49 -24 -90 18 -90 95 0 44 -2 46 -37 28z"/>
<path d="M3506 1952 c-5 -8 -19 -12 -33 -9 -25 5 -25 4 -21 -57 4 -54 9 -65
41 -98 53 -56 89 -53 161 13 54 50 56 53 56 104 l0 52 -35 -11 c-33 -10 -35
-13 -35 -57 0 -52 -15 -71 -56 -71 -40 0 -58 26 -64 90 -3 37 -8 52 -14 44z"/>
<path d="M2015 1928 c-2 -7 -6 -31 -7 -53 -2 -30 -9 -42 -26 -51 -37 -18 -75
-3 -87 34 -7 26 -13 31 -30 26 -50 -16 -52 -54 -5 -104 33 -35 91 -41 123 -12
15 12 21 14 24 5 7 -20 27 -15 51 10 18 19 22 35 22 90 l0 67 -30 0 c-17 0
-33 -6 -35 -12z"/>
<path d="M2362 1860 c0 -14 2 -19 5 -12 2 6 2 18 0 25 -3 6 -5 1 -5 -13z"/>
<path d="M2313 1770 l-43 -47 -127 -12 c-148 -15 -252 -35 -292 -56 -35 -18
-61 -42 -61 -58 0 -6 7 -1 16 11 20 29 71 50 161 68 81 15 263 30 263 21 0
-15 -159 -102 -235 -128 -109 -37 -182 -39 -195 -6 l-9 22 0 -23 c-3 -82 235
-23 421 105 l67 46 78 -6 c104 -7 150 -22 190 -62 78 -78 16 -184 -152 -260
-181 -81 -468 -130 -625 -106 -134 21 -210 73 -210 145 0 29 50 90 95 118 19
11 24 18 13 18 -38 0 -128 -105 -128 -150 0 -35 79 -106 140 -125 172 -54 505
-12 722 92 136 65 188 123 188 210 0 75 -103 133 -237 133 l-64 0 37 45 c49
60 40 63 -13 5z"/>
<path d="M3318 1793 c28 -2 52 -8 52 -13 0 -18 -175 -67 -503 -140 -54 -12
-96 -24 -94 -26 2 -3 56 6 119 20 266 58 478 117 503 142 29 29 106 8 87 -23
-11 -18 -84 -31 -112 -21 -17 6 -22 6 -15 -1 23 -23 99 -17 126 10 20 20 20
22 3 40 -15 17 -30 19 -118 17 -57 -1 -78 -3 -48 -5z"/>
<path d="M2367 1762 c-21 -23 -13 -32 30 -32 l34 0 -18 25 c-22 30 -25 30 -46
7z"/>
<path d="M2091 1739 l-23 -19 36 0 c37 0 45 10 24 28 -9 7 -20 5 -37 -9z"/>
<path d="M3069 1714 c-11 -14 -10 -16 9 -12 13 1 23 7 23 13 1 17 -17 16 -32
-1z"/>
<path d="M2079 1679 c-171 -18 -274 -57 -267 -103 4 -28 47 -32 129 -11 68 18
187 73 229 105 29 23 32 22 -91 9z"/>
<path d="M2651 1604 c0 -11 3 -14 6 -6 3 7 2 16 -1 19 -3 4 -6 -2 -5 -13z"/>
<path d="M2810 1493 c0 -36 12 -54 29 -44 18 12 10 65 -11 69 -14 3 -18 -3
-18 -25z"/>
</g>
</svg>
